# xmcd
#
# Track frame offsets:
#	150
#	9475
#	26312
#	42212
#	64950
#	80425
#	94712
#	112225
#	127150
#	144675
#
# Disc length: 2123 seconds
#
# Revision: 6
# Processed by: cddbd v1.5.2PL0 Copyright (c) Steve Scherf et al.
# Submitted via: audiograbber 1.83.01
#
DISCID=8708490a
DTITLE=Marianne Faithfull - A Secret Life
DYEAR=1995
DGENRE=Alternative Pop
TTITLE0=Prologue 
TTITLE1=Sleep 
TTITLE2=Love In The Afternoon 
TTITLE3=Flaming September 
TTITLE4=She 
TTITLE5=Bored By Dreams 
TTITLE6=Losing 
TTITLE7=The Wedding 
TTITLE8=The Stars Line Up 
TTITLE9=Epilogue 
EXTD=YEAR: 1995
EXTT0=
EXTT1=
EXTT2=
EXTT3=
EXTT4=
EXTT5=
EXTT6=
EXTT7=
EXTT8=
EXTT9=
PLAYORDER=
